<?xml version="1.0" standalone="no"?>
<!DOCTYPE svg PUBLIC "-//W3C//DTD SVG 20010904//EN"
 "http://www.w3.org/TR/2001/REC-SVG-20010904/DTD/svg10.dtd">
<svg version="1.0" xmlns="http://www.w3.org/2000/svg"
 width="2234.000000pt" height="2234.000000pt" viewBox="0 0 2234.000000 2234.000000"
 preserveAspectRatio="xMidYMid meet">
<metadata>
Created by potrace 1.14, written by Peter Selinger 2001-2017
</metadata>
<g transform="translate(0.000000,2234.000000) scale(0.100000,-0.100000)"
fill="#000000" stroke="none">
<path d="M20225 22243 c-44 -53 -85 -101 -90 -107 -6 -6 -33 -38 -60 -71 -28
-33 -54 -65 -60 -71 -5 -6 -26 -30 -45 -54 -19 -24 -50 -59 -68 -79 -49 -54
-57 -71 -32 -71 11 0 20 -4 20 -10 0 -5 -14 -10 -32 -10 -24 0 -39 -9 -66 -40
-36 -43 -40 -44 -47 -14 -2 11 -13 51 -25 89 -12 39 -29 97 -39 130 l-18 60
-27 -43 c-15 -24 -31 -53 -37 -65 -38 -87 -94 -168 -155 -224 -38 -34 -73 -63
-79 -63 -5 1 -27 14 -48 30 l-39 29 -76 -46 c-43 -25 -91 -54 -109 -64 l-31
-18 -11 30 c-5 16 -8 29 -6 29 2 0 -2 18 -10 40 -15 41 -15 43 -15 60 0 6 -11
10 -25 10 -14 0 -25 5 -25 10 0 6 9 10 20 10 11 0 20 4 20 9 0 11 -51 225 -55
229 -1 1 -16 -35 -33 -80 -138 -372 -164 -450 -156 -457 5 -5 36 -12 69 -15
33 -4 86 -9 118 -13 95 -10 64 -18 -70 -18 l-128 0 -7 -40 c-3 -22 -10 -69
-13 -105 -4 -36 -10 -69 -12 -74 -3 -4 -15 7 -26 25 l-21 32 -12 -29 c-7 -16
-10 -32 -7 -36 2 -5 -1 -8 -6 -8 -6 0 -11 -5 -11 -11 0 -12 -41 -122 -142
-384 -28 -71 -51 -134 -52 -140 -2 -5 -8 -30 -15 -55 -7 -25 -15 -52 -17 -60
-19 -81 -50 -180 -55 -180 -6 0 -16 21 -39 85 l-11 29 -23 -49 c-34 -73 -66
-144 -66 -149 0 -2 -16 -37 -34 -78 -19 -40 -38 -89 -41 -108 -3 -19 -10 -54
-16 -77 -5 -24 -8 -46 -7 -50 1 -5 -5 -37 -12 -72 l-13 -64 -24 28 c-13 15
-25 26 -27 24 -1 -2 -34 -56 -74 -120 -73 -119 -91 -154 -91 -186 0 -10 -3
-29 -5 -43 -2 -14 -5 -28 -5 -31 -1 -4 -19 -18 -40 -32 -36 -24 -39 -30 -39
-71 l0 -45 41 -6 c23 -3 74 -13 113 -21 87 -19 88 -19 147 -29 26 -4 49 -10
51 -14 4 -6 -44 -8 -280 -15 -49 -1 -95 -5 -100 -9 -6 -3 -17 -39 -24 -79 -8
-40 -14 -75 -15 -78 -1 -3 -5 -24 -9 -48 -7 -38 -18 -49 -22 -21 -1 5 -2 10
-4 12 -1 1 -3 10 -5 20 -6 30 -14 32 -24 6 -5 -13 -21 -53 -36 -89 -15 -36
-31 -75 -36 -86 -7 -19 5 -31 107 -100 62 -44 124 -84 136 -91 13 -7 37 -24
53 -37 l30 -25 -55 -1 c-30 -1 -95 -4 -145 -6 -49 -3 -119 -7 -155 -8 -36 -2
-70 -4 -75 -4 -6 -1 -17 -19 -24 -39 -8 -21 -22 -56 -31 -78 -10 -22 -32 -76
-50 -120 -18 -44 -38 -93 -46 -110 -7 -16 -33 -79 -57 -140 -81 -200 -118
-290 -127 -310 -5 -11 -21 -49 -35 -85 -14 -36 -30 -74 -35 -85 -6 -11 -21
-46 -34 -79 -25 -63 -30 -63 -41 -1 -4 22 -8 47 -10 55 -2 8 -4 21 -4 28 -2
26 -19 8 -86 -96 -38 -59 -76 -113 -82 -120 -7 -7 -13 -18 -13 -24 0 -6 -2 -9
-5 -6 -3 3 23 90 57 194 34 104 61 197 60 206 0 9 -13 54 -27 100 -27 83 -31
97 -34 110 -1 4 -9 27 -17 50 -8 24 -19 75 -24 113 -5 39 -12 93 -16 120 -7
56 -9 74 -18 160 -4 33 -9 69 -11 80 -2 11 -4 24 -4 30 -1 5 -14 -6 -30 -25
-40 -49 -154 -167 -147 -154 3 6 8 42 11 80 3 38 7 101 10 139 3 39 7 89 9
112 4 38 1 44 -22 56 -216 113 -209 106 -217 212 -3 50 -8 108 -10 130 -3 22
-7 69 -9 104 -3 35 -7 65 -9 67 -2 3 -10 -10 -17 -28 -8 -18 -24 -55 -36 -83
-12 -27 -52 -120 -89 -205 -36 -85 -74 -171 -82 -190 -9 -19 -27 -60 -40 -90
-23 -54 -23 -54 -17 -15 3 22 7 51 10 65 2 14 6 43 10 65 3 22 8 54 10 70 37
213 69 437 65 444 -3 5 -31 12 -61 16 -80 10 -80 20 0 18 77 -2 74 -4 84 77 3
19 9 57 14 84 6 28 9 57 7 65 -8 40 -174 355 -179 341 -19 -50 -148 -417 -150
-425 -1 -5 -5 -16 -9 -22 -5 -7 -5 -13 -1 -13 3 0 2 -6 -3 -12 -8 -10 -41 -96
-48 -128 -1 -3 -6 -16 -12 -30 -49 -124 -164 -475 -156 -477 5 -2 18 -10 28
-17 17 -12 17 -15 -8 -62 -33 -63 -48 -99 -88 -204 -39 -106 -47 -114 -39 -45
3 30 3 52 -1 48 -4 -5 -30 -73 -57 -153 -81 -232 -151 -431 -157 -441 -4 -5
-3 -9 2 -10 4 0 15 -2 23 -4 8 -2 76 -15 150 -29 74 -14 149 -28 165 -31 17
-3 47 -9 67 -12 21 -3 35 -10 32 -14 -3 -5 -10 -7 -15 -3 -15 9 -445 22 -452
14 -2 -3 -13 -32 -25 -65 -11 -33 -50 -145 -87 -250 -37 -104 -75 -215 -85
-245 -11 -30 -40 -113 -65 -185 -81 -228 -87 -246 -82 -251 4 -5 139 -34 220
-48 15 -3 35 -7 45 -10 9 -3 33 -7 52 -10 19 -3 80 -14 134 -26 55 -11 113
-22 130 -25 17 -2 49 -9 71 -14 47 -12 64 -15 210 -42 61 -11 113 -23 117 -27
8 -8 -14 -8 -634 -13 -230 -1 -422 -5 -426 -8 -5 -3 -22 -46 -39 -96 -17 -49
-59 -169 -93 -265 -34 -96 -63 -179 -64 -185 -2 -5 -8 -21 -13 -35 -6 -14 -18
-47 -27 -75 -10 -27 -28 -78 -42 -112 -13 -34 -24 -66 -24 -71 0 -5 21 -13 46
-17 25 -3 56 -8 67 -11 12 -2 41 -7 64 -10 108 -15 93 -22 -48 -23 l-147 -1
-10 -27 c-44 -119 -70 -195 -77 -223 -1 -3 -6 -16 -12 -30 -6 -14 -20 -52 -31
-85 -11 -33 -48 -139 -82 -235 -95 -271 -109 -310 -107 -311 7 -2 40 -7 97
-13 36 -4 79 -9 95 -11 17 -2 55 -6 85 -9 30 -4 66 -8 80 -10 14 -3 52 -7 85
-11 33 -3 78 -8 100 -10 22 -3 63 -7 90 -11 28 -3 66 -7 85 -9 19 -3 55 -7 80
-10 62 -8 105 -13 175 -21 33 -3 71 -8 85 -10 14 -2 54 -6 90 -10 36 -3 68 -9
72 -13 8 -7 -139 -6 -904 3 l-366 4 -21 -57 c-11 -31 -41 -117 -67 -191 -25
-74 -50 -144 -55 -155 -5 -11 -40 -112 -79 -225 -39 -113 -74 -214 -79 -226
-9 -21 -3 -28 62 -64 15 -8 27 -19 25 -25 -2 -11 -51 -30 -102 -39 -26 -5 -36
-13 -41 -33 -4 -17 -2 -29 7 -34 96 -58 137 -85 138 -91 0 -6 -66 -4 -152 6
-30 4 -42 -6 -53 -44 -4 -14 -38 -113 -76 -221 -38 -108 -69 -199 -69 -202 0
-4 65 -34 90 -42 3 -1 16 -6 30 -12 14 -6 45 -19 70 -28 41 -17 80 -40 55 -34
-5 1 -26 -1 -45 -5 -19 -4 -42 -8 -50 -10 -8 -1 -59 -11 -112 -21 l-98 -19
-24 -65 c-28 -75 -223 -629 -228 -648 -2 -7 41 -34 100 -62 118 -56 125 -61
91 -62 -13 0 -31 -2 -39 -4 -8 -1 -35 -6 -60 -10 -25 -4 -64 -10 -87 -14 -23
-5 -45 -6 -48 -3 -5 5 -44 -77 -50 -106 -2 -9 -14 -47 -28 -83 l-25 -66 51
-11 c29 -7 66 -14 82 -17 17 -2 41 -7 55 -10 14 -3 48 -10 75 -15 28 -6 61
-13 75 -15 14 -3 36 -8 50 -10 14 -2 36 -7 50 -10 39 -8 182 -36 210 -41 56
-10 66 -12 80 -17 8 -3 24 -8 35 -10 11 -3 -16 -5 -60 -6 -289 -6 -716 -17
-753 -20 -11 -1 -28 -32 -36 -66 -2 -5 -6 -17 -9 -25 -4 -8 -36 -98 -71 -200
-35 -102 -71 -204 -80 -228 l-15 -42 119 -57 c66 -31 117 -60 114 -65 -3 -5
-8 -7 -10 -5 -3 2 -70 -16 -150 -42 l-146 -46 -29 -80 c-16 -44 -50 -141 -75
-215 -25 -74 -49 -144 -53 -155 -10 -21 -72 -203 -76 -220 -1 -5 -5 -17 -8
-25 -3 -8 -18 -51 -32 -95 -15 -44 -29 -87 -32 -95 -3 -8 -18 -50 -33 -92
l-28 -78 37 -10 c20 -5 52 -11 71 -14 111 -15 110 -17 -26 -50 -71 -18 -129
-36 -129 -41 0 -6 -3 -14 -6 -20 -5 -8 -49 -135 -54 -155 -1 -3 -6 -16 -12
-30 -6 -14 -29 -81 -53 -150 -23 -69 -47 -134 -53 -145 -10 -19 -11 -18 -19
10 -4 17 -11 46 -14 65 -3 19 -8 38 -10 41 -2 4 -6 24 -10 45 -3 22 -10 44
-15 50 -5 6 -7 13 -4 16 3 2 -7 49 -20 104 -14 54 -28 112 -31 128 -3 16 -6
32 -8 35 -2 3 -7 22 -10 41 -3 19 -16 80 -29 134 l-22 99 -135 28 c-74 15
-137 28 -140 28 -3 1 -18 4 -35 7 -63 11 -70 12 -84 13 -8 1 -12 3 -9 6 6 6
16 8 88 20 25 4 54 9 65 11 11 2 60 11 110 20 49 8 92 17 96 20 4 2 3 21 -2
41 -5 21 -12 49 -15 63 -3 14 -12 54 -20 90 -9 36 -17 74 -19 85 -3 11 -9 38
-14 60 -34 136 -59 246 -67 295 -3 19 -8 38 -11 43 -2 4 -7 20 -9 35 -7 37
-42 188 -56 237 -6 22 -13 56 -15 75 -3 19 -8 38 -11 42 -8 8 -87 15 -340 33
-50 3 -48 12 5 19 26 4 55 9 63 11 33 7 137 24 178 30 24 3 53 10 65 14 18 7
13 10 -28 16 -27 4 -57 9 -67 11 -9 1 -38 6 -65 10 -26 3 -57 8 -68 10 -11 3
-36 7 -55 10 -19 3 -46 7 -60 10 -14 2 -43 6 -65 9 -22 3 -51 7 -65 10 -14 3
-41 8 -60 11 -19 3 -60 9 -90 14 -30 5 -73 12 -95 15 -95 14 -110 17 -117 24
-4 3 14 6 40 4 140 -7 772 -9 772 -2 0 4 -9 47 -21 96 -12 48 -23 99 -26 113
-2 14 -10 50 -18 80 -13 52 -35 148 -75 325 -10 44 -28 123 -40 175 -12 52
-24 109 -27 125 -3 17 -9 35 -14 41 -5 6 -7 13 -4 15 2 3 0 20 -4 39 -18 75
-85 360 -106 455 -12 55 -35 152 -49 215 -15 63 -30 126 -32 140 -13 64 -66
286 -71 290 -2 3 -41 6 -86 7 -45 1 -127 4 -182 7 -55 3 -167 8 -250 11 -82 4
-181 8 -220 10 -38 2 -101 4 -139 4 -96 1 -78 10 35 16 52 3 121 7 154 10 33
2 107 7 165 11 58 3 123 7 145 9 157 10 285 18 312 19 17 0 29 4 27 8 -3 4
-15 7 -27 7 -19 -1 -86 4 -192 16 -115 12 -182 18 -197 19 -10 0 -18 4 -18 8
0 4 8 8 18 9 37 2 69 6 107 13 22 5 56 10 75 12 19 2 64 9 100 14 36 6 79 12
95 14 19 3 29 9 27 17 -2 8 -6 25 -9 39 -2 14 -13 61 -23 105 -18 75 -43 183
-106 455 -14 63 -28 126 -31 140 -2 14 -11 50 -19 80 -8 30 -17 66 -19 80 -3
22 -29 136 -55 245 -14 59 -62 270 -120 525 -28 124 -58 254 -66 289 -17 69
-21 88 -29 124 -38 178 -58 247 -73 248 -28 3 -82 6 -202 13 -63 4 -149 9
-190 11 -41 2 -122 7 -180 10 -58 3 -143 8 -190 11 -47 2 -123 7 -170 9 -47 2
-132 7 -190 10 -200 12 -225 14 -279 14 -82 1 -58 9 54 16 55 4 123 9 150 10
28 2 95 6 150 10 55 3 132 7 170 10 39 2 108 7 155 10 47 3 114 8 150 10 172
12 218 15 323 21 61 4 121 8 132 9 11 1 36 3 56 4 l37 1 -9 38 c-12 49 -39
170 -45 201 -3 14 -7 28 -9 31 -2 4 -6 20 -9 36 -3 16 -17 79 -31 139 -51 223
-67 290 -71 308 -12 51 -15 65 -23 102 -5 22 -28 123 -51 225 -23 102 -46 203
-51 225 -17 73 -19 85 -40 173 -12 48 -22 94 -24 102 -3 13 -33 139 -39 165
-2 6 -6 28 -10 50 -5 22 -15 67 -23 100 -8 33 -17 68 -19 79 -2 10 -5 20 -7
22 -7 7 -142 -97 -148 -114 -4 -9 -17 -39 -29 -67 l-21 -49 -22 26 c-17 20
-30 26 -60 24 -20 -1 -37 2 -37 6 0 4 14 8 30 8 17 0 30 2 30 4 0 3 -14 28
-32 56 -21 35 -35 47 -42 40 -18 -18 -24 -11 -19 20 4 26 -17 76 -45 110 -2 3
-14 -8 -26 -23 l-23 -29 -8 44 c-4 23 -8 46 -7 49 3 16 -30 103 -48 129 -11
15 -20 31 -20 34 0 3 -14 29 -31 58 -18 29 -53 116 -80 193 -26 77 -56 163
-67 192 l-18 52 -55 -111 c-30 -62 -54 -115 -55 -118 0 -3 -19 -42 -42 -87
-46 -89 -48 -99 -29 -100 32 -2 122 -16 146 -23 19 -6 8 -9 -44 -10 -157 -5
-133 8 -192 -110 -28 -58 -52 -103 -53 -100 -2 8 -14 292 -24 550 -4 101 -16
362 -20 414 -1 15 -17 22 -88 36 -48 10 -106 21 -129 24 -43 6 -77 24 -42 23
10 -1 71 7 136 17 l119 19 -6 141 c-4 112 -9 150 -25 186 -11 25 -24 49 -28
54 -4 4 -8 11 -8 14 -1 7 -85 177 -114 230 -7 13 -14 22 -16 20 -10 -9 -124
-351 -120 -358 2 -4 25 -13 51 -20 52 -15 46 -21 -33 -40 l-52 -12 -28 -81
c-15 -45 -28 -84 -28 -87 -1 -3 -5 -12 -8 -20 -3 -8 -15 -42 -26 -75 -11 -33
-45 -132 -76 -220 -110 -312 -126 -360 -130 -375 -5 -16 -85 -245 -137 -389
-17 -45 -31 -88 -32 -95 -1 -6 -4 -15 -7 -21 -4 -5 -12 -28 -18 -50 -7 -22
-16 -49 -21 -60 -5 -11 -25 -69 -45 -130 -20 -60 -41 -119 -46 -130 -8 -19
-79 -226 -79 -232 0 -2 7 -3 15 -3 8 0 23 -4 33 -10 9 -5 92 -35 185 -66 92
-31 166 -58 165 -60 -2 -1 -44 -5 -93 -9 -50 -4 -106 -8 -125 -10 -19 -2 -75
-6 -124 -10 -49 -4 -95 -8 -104 -9 -8 -2 -23 -25 -33 -52 -30 -83 -95 -269
-174 -499 -42 -121 -97 -278 -122 -348 -25 -70 -46 -133 -47 -140 -2 -7 -6
-19 -10 -27 -3 -8 -37 -105 -75 -215 -38 -110 -110 -317 -160 -459 -50 -143
-89 -261 -87 -263 4 -4 44 -8 161 -18 44 -3 96 -8 115 -10 19 -3 69 -7 110
-10 41 -3 95 -8 120 -10 125 -11 271 -24 345 -30 33 -2 89 -7 125 -10 84 -8
162 -14 230 -20 30 -2 80 -6 110 -10 51 -5 102 -9 240 -20 30 -2 75 -7 100 -9
25 -3 77 -8 115 -11 79 -6 195 -16 240 -20 17 -2 73 -7 125 -11 52 -3 97 -8
100 -11 4 -4 -315 1 -750 12 -113 3 -317 7 -455 10 -234 5 -486 10 -908 19
l-179 4 -15 -36 c-8 -20 -16 -43 -18 -51 -2 -9 -20 -61 -40 -116 -20 -55 -42
-118 -50 -140 -7 -22 -49 -143 -93 -270 -184 -528 -235 -675 -264 -760 -16
-49 -36 -104 -44 -122 -8 -17 -14 -34 -14 -37 0 -5 -80 -239 -226 -655 -41
-117 -73 -215 -71 -218 3 -2 20 -6 38 -8 19 -2 99 -13 179 -25 80 -12 159 -23
175 -25 17 -2 57 -8 90 -13 33 -6 80 -13 105 -17 93 -12 266 -36 295 -41 17
-3 50 -9 75 -14 43 -7 44 -8 10 -9 -19 -1 -163 -4 -320 -7 -157 -3 -350 -7
-430 -9 -80 -2 -176 -4 -215 -4 l-70 -1 -35 -108 c-19 -59 -38 -114 -42 -122
-4 -8 -30 -82 -59 -165 -77 -226 -131 -380 -204 -590 -37 -104 -68 -194 -69
-200 -2 -5 -6 -17 -9 -25 -3 -8 -41 -114 -83 -235 -42 -121 -110 -317 -151
-435 -41 -118 -76 -219 -77 -225 -2 -5 -6 -17 -9 -25 -8 -21 -64 -181 -141
-400 -35 -102 -67 -192 -71 -201 -8 -21 2 -26 125 -53 14 -3 43 -10 65 -16
113 -29 378 -90 391 -90 8 0 14 -4 14 -9 0 -4 -33 -9 -72 -10 -90 -2 -292 -9
-456 -15 -67 -3 -127 -8 -132 -11 -10 -6 -34 -84 -28 -90 4 -4 35 -10 153 -30
17 -3 59 -10 95 -16 36 -6 74 -12 85 -14 11 -1 61 -10 110 -19 50 -8 110 -18
134 -21 23 -3 46 -7 50 -10 4 -2 30 -7 57 -10 27 -4 60 -9 74 -11 14 -3 42 -8
63 -11 60 -9 36 -15 -85 -19 -62 -2 -167 -6 -233 -9 -66 -2 -181 -7 -255 -10
-74 -3 -175 -7 -224 -9 -48 -2 -92 -8 -97 -13 -4 -4 -23 -53 -42 -108 -20 -55
-55 -158 -80 -230 -156 -447 -176 -510 -168 -518 5 -5 66 -37 135 -72 70 -35
123 -65 119 -68 -4 -2 -26 -8 -48 -12 -22 -5 -44 -9 -50 -11 -5 -1 -61 -12
-124 -25 -113 -23 -114 -24 -129 -59 -8 -19 -15 -39 -17 -45 -1 -5 -5 -17 -8
-25 -4 -8 -39 -107 -78 -220 -39 -113 -79 -227 -88 -255 -45 -126 -135 -387
-196 -565 -36 -107 -70 -204 -75 -215 -14 -30 -50 -137 -56 -165 -3 -13 -10
-30 -16 -37 -6 -7 -7 -13 -3 -13 4 0 3 -6 -2 -12 -6 -7 -16 -31 -22 -53 -7
-22 -16 -49 -21 -60 -5 -11 -14 -36 -19 -55 -9 -33 -83 -245 -130 -375 -12
-33 -33 -91 -45 -130 -13 -38 -53 -154 -89 -257 l-66 -188 42 -10 c23 -6 96
-26 162 -45 126 -35 237 -64 269 -71 21 -4 32 -12 25 -18 -2 -2 -38 -7 -79
-10 -149 -13 -176 -15 -228 -21 -29 -4 -78 -8 -110 -11 -77 -5 -145 -14 -151
-20 -3 -2 -10 -20 -16 -39 l-12 -34 36 -5 c45 -7 109 -14 181 -21 30 -3 71 -7
90 -10 19 -2 64 -7 100 -11 36 -3 72 -8 81 -9 9 -2 52 -6 95 -10 43 -4 86 -9
94 -10 8 -1 44 -6 80 -10 36 -3 76 -8 90 -10 25 -4 79 -10 175 -20 28 -2 66
-7 85 -9 19 -2 62 -7 95 -11 33 -4 74 -8 90 -10 17 -2 59 -7 95 -10 36 -4 67
-9 69 -11 2 -2 -94 -4 -215 -4 -771 -1 -1298 -10 -1306 -22 -7 -12 -58 -157
-64 -183 -2 -5 -24 -68 -49 -140 -26 -71 -87 -245 -135 -385 -48 -140 -93
-268 -99 -283 -6 -16 -11 -30 -11 -32 0 -1 15 -6 33 -9 54 -10 70 -14 138 -30
85 -19 104 -24 157 -35 61 -12 60 -17 -5 -25 -32 -4 -74 -9 -93 -11 -19 -2
-75 -9 -125 -15 -141 -17 -147 -18 -155 -27 -4 -4 -21 -48 -38 -98 -16 -49
-60 -175 -97 -280 -36 -104 -68 -197 -70 -205 -2 -8 -12 -35 -21 -60 -15 -42
-95 -272 -214 -615 -27 -77 -71 -205 -99 -284 -50 -143 -58 -173 -43 -169 4 1
54 -4 112 -12 58 -7 114 -14 125 -16 11 -1 33 -3 49 -3 16 -1 26 -4 22 -8 -4
-4 -82 -7 -173 -8 l-167 0 -17 -50 c-32 -96 -68 -219 -65 -222 2 -2 15 15 30
37 14 22 28 40 30 40 2 0 -3 -19 -11 -42 -9 -24 -32 -97 -53 -163 -162 -508
-277 -862 -291 -887 -19 -37 -7 -31 37 17 l45 50 -46 -79 c-38 -65 -55 -115
-101 -285 -31 -113 -62 -228 -70 -256 -29 -104 -134 -489 -134 -494 0 -3 36
47 80 109 44 63 87 124 95 136 8 11 80 114 159 230 80 115 149 214 153 219 5
6 92 129 193 275 101 146 210 301 242 344 32 44 57 80 55 82 -3 3 -229 17
-256 15 -14 0 -22 1 -20 4 8 7 53 13 244 31 39 3 75 10 81 15 31 25 99 134
132 210 36 84 92 168 92 139 -1 -8 -7 -26 -15 -40 -27 -48 -15 -53 20 -7 19
25 35 51 35 56 0 6 3 11 8 11 4 0 18 17 32 38 14 20 28 39 31 42 18 15 99 134
99 146 0 7 6 17 14 21 7 4 21 22 30 40 9 18 25 37 35 43 13 6 17 17 14 30 -4
15 0 20 13 20 12 0 51 44 111 126 51 69 93 123 93 120 0 -4 -9 -48 -21 -99
-11 -50 -23 -103 -25 -117 -3 -14 -14 -63 -25 -110 -11 -47 -26 -114 -34 -150
-9 -36 -17 -74 -19 -85 -2 -11 -11 -50 -20 -86 -8 -37 -17 -78 -20 -90 -2 -13
-11 -53 -20 -89 -8 -36 -18 -78 -21 -95 -14 -69 -17 -83 -31 -139 -8 -32 -13
-60 -11 -62 2 -3 55 50 118 117 63 67 128 136 144 154 26 28 158 169 284 305
23 25 52 68 65 95 146 313 140 299 208 490 16 45 29 54 17 11 -17 -62 -5 -61
16 1 11 32 40 103 66 158 26 55 46 101 45 103 -2 1 -41 5 -87 8 -46 3 -97 7
-114 9 -16 2 -50 4 -74 4 -62 1 -48 9 29 15 36 4 88 9 115 12 70 8 95 11 131
12 34 2 33 2 90 127 l22 50 12 -32 c6 -17 17 -30 23 -27 7 2 18 -10 26 -28
l15 -33 14 35 c9 23 16 30 21 21 10 -16 119 -42 126 -31 3 5 6 20 7 34 l2 27
17 -23 c17 -22 17 -22 54 38 20 32 50 77 65 99 16 22 30 54 33 70 3 17 9 44
13 60 l8 30 6 -30 c5 -27 7 -23 19 32 12 55 16 62 39 65 18 2 34 16 51 45 55
89 184 293 186 293 2 0 -2 -115 -8 -197 l-4 -53 36 -1 c20 -1 39 -1 44 0 4 0
7 -4 7 -9 0 -9 -34 -14 -72 -11 -15 2 -18 -6 -19 -46 -1 -26 -2 -61 -4 -78 -1
-16 -6 -82 -9 -145 -9 -171 -15 -277 -20 -358 -3 -39 -1 -72 3 -72 6 0 86 184
86 200 0 3 3 10 7 16 4 6 22 48 41 95 85 208 149 366 158 384 5 11 35 84 68
163 65 157 66 144 -9 155 -14 3 -2 5 25 6 l50 1 24 58 c13 31 25 62 28 69 3 7
-12 12 -44 12 -26 1 -59 3 -73 5 -14 2 -43 4 -64 5 -66 2 -35 10 60 16 127 8
154 14 154 37 0 5 6 24 14 41 8 18 54 127 101 242 47 116 90 219 95 230 9 20
214 516 295 715 43 106 57 140 81 195 7 17 22 55 34 85 11 30 27 69 35 85 26
59 47 110 55 138 8 25 6 27 -18 28 -15 1 -36 3 -47 4 -11 1 -51 5 -90 9 -38 4
-83 9 -100 11 -16 3 -55 7 -86 10 -31 2 -72 7 -90 10 -19 3 -61 7 -94 10 -230
18 -237 27 -30 40 136 8 193 12 270 19 33 2 110 8 170 12 61 4 121 8 135 9 14
2 31 3 38 4 7 1 17 13 23 28 6 15 17 41 24 58 15 32 97 231 147 355 32 81 34
86 72 173 14 32 26 60 26 62 0 5 87 217 110 270 5 11 32 76 60 145 28 69 60
145 70 170 84 200 140 339 137 341 -8 3 -46 7 -127 13 -52 3 -115 9 -140 11
-113 12 -140 15 -220 20 -47 4 -101 8 -120 10 -19 2 -64 7 -100 10 -36 3 -83
8 -105 10 -22 2 -80 7 -130 10 -49 4 -101 8 -115 11 -14 2 -65 6 -115 10 -100
6 -134 19 -52 20 28 0 153 3 277 8 124 4 284 9 355 11 72 2 211 7 310 10 99 4
217 8 262 9 45 1 87 6 92 11 7 9 197 461 205 490 2 6 10 26 18 45 9 19 73 175
143 345 69 171 132 324 140 340 7 17 29 71 49 120 20 50 41 99 46 110 23 51
52 121 54 130 2 6 8 21 13 35 121 289 212 514 209 517 -2 2 -26 6 -54 8 -28 2
-75 6 -104 9 -29 4 -84 9 -123 12 -38 3 -88 7 -110 10 -22 2 -73 6 -114 9 -40
3 -85 7 -100 9 -14 3 -66 8 -116 12 -49 4 -101 8 -115 10 -14 1 -41 3 -60 4
l-35 2 35 8 c29 7 143 26 285 46 17 2 41 6 55 9 14 2 45 7 70 10 25 3 70 10
100 15 30 5 73 12 95 15 22 3 58 8 80 12 22 3 47 7 55 8 8 1 70 11 138 21
l123 18 24 53 c43 93 43 94 -21 129 l-57 32 74 23 c41 12 79 28 86 33 10 9
237 543 247 581 1 6 10 28 20 50 9 22 56 133 103 248 47 114 89 207 92 207 6
0 33 -96 98 -351 l27 -107 65 -16 c37 -9 118 -30 181 -47 63 -17 145 -39 182
-48 82 -20 89 -26 35 -27 -23 0 -121 -4 -217 -8 -96 -5 -181 -8 -189 -9 -16 0
-13 -20 34 -197 20 -74 38 -142 40 -150 2 -8 15 -60 29 -115 33 -125 47 -178
61 -238 2 -10 14 -52 25 -95 12 -42 23 -84 25 -92 2 -8 20 -78 40 -155 20 -77
38 -147 40 -155 2 -8 29 -112 60 -230 31 -118 58 -226 61 -240 3 -14 8 -34 11
-45 4 -11 8 -24 9 -30 1 -5 30 -116 63 -245 34 -129 64 -246 67 -260 3 -14 8
-34 11 -45 7 -20 8 -25 17 -60 2 -11 19 -74 36 -140 17 -66 49 -190 71 -275
22 -85 51 -197 65 -248 14 -51 27 -100 29 -110 1 -9 19 -80 40 -157 20 -77 38
-147 40 -155 3 -15 60 -233 97 -372 l20 -78 47 -1 c25 -1 60 -2 76 -4 17 -1
89 -6 160 -10 72 -4 153 -9 180 -10 28 -2 102 -6 165 -10 63 -3 144 -8 180
-10 36 -2 110 -7 165 -10 130 -7 219 -12 330 -19 176 -12 251 -16 355 -21 58
-3 137 -8 175 -10 39 -3 113 -7 164 -10 52 -3 97 -8 100 -10 2 -3 -45 -5 -105
-6 -60 0 -185 -2 -279 -4 -217 -5 -601 -13 -965 -21 -157 -3 -343 -7 -415 -9
-71 -2 -165 -3 -208 -4 l-78 -1 5 -28 c5 -30 45 -188 54 -212 3 -8 7 -24 9
-35 2 -11 28 -110 58 -220 89 -329 114 -422 149 -555 2 -8 16 -60 31 -115 59
-214 77 -281 80 -295 2 -8 4 -15 5 -15 2 0 7 -20 15 -59 3 -16 8 -33 11 -38 3
-5 8 -20 10 -35 8 -45 94 -357 100 -363 3 -3 131 -6 285 -6 154 -1 283 -4 286
-8 3 -3 2 -6 -3 -6 -5 0 -119 -30 -254 -66 -135 -35 -253 -67 -264 -69 -10 -2
-21 -6 -23 -9 -2 -2 14 -73 36 -157 65 -250 133 -513 137 -529 3 -13 28 -112
38 -150 15 -55 68 -258 71 -270 2 -8 8 -26 13 -40 5 -14 10 -28 10 -33 0 -14
35 -157 38 -155 2 3 10 83 19 193 4 49 11 129 20 210 2 22 7 72 11 110 4 39 8
81 9 95 1 22 6 25 36 24 92 -4 204 -15 211 -22 6 -6 24 -62 134 -420 32 -103
35 -126 38 -255 3 -147 5 -168 19 -178 5 -3 10 -33 11 -65 3 -59 25 -198 31
-192 3 3 11 65 20 153 18 176 23 197 45 190 13 -4 22 1 30 16 11 20 13 19 35
-27 16 -33 24 -43 25 -29 1 11 3 27 5 35 2 8 11 44 19 80 8 37 15 54 16 40 1
-14 3 -29 5 -35 1 -5 3 -28 4 -50 l2 -40 16 32 c14 27 21 32 42 28 21 -4 30 2
44 28 l19 32 18 -22 c17 -21 19 -21 71 -8 30 8 59 15 65 15 7 0 -4 -51 -28
-127 -40 -132 -43 -169 -17 -227 l13 -28 9 24 c8 22 9 21 23 -17 7 -22 14 -51
14 -65 1 -33 36 -107 42 -89 8 22 15 8 21 -41 5 -38 85 -259 86 -238 1 4 15
58 32 120 37 139 169 394 192 372 3 -4 21 15 39 40 18 26 34 42 36 36 2 -6 24
10 49 35 42 42 65 55 62 38 -1 -5 -1 -28 0 -52 1 -37 3 -42 16 -31 13 11 14 6
9 -31 -3 -24 -7 -50 -10 -58 -6 -19 6 -82 15 -76 4 2 7 -36 5 -85 -2 -112 1
-112 94 8 19 23 39 42 46 42 6 0 20 13 29 30 10 16 23 30 28 30 6 0 7 5 4 10
-4 6 -3 9 2 8 12 -4 73 44 67 54 -3 4 1 8 8 8 7 0 19 9 26 20 21 34 51 121 46
134 -3 7 2 19 11 26 8 7 15 19 15 27 0 7 7 25 16 38 9 14 13 25 10 25 -4 0 -2
9 4 20 9 18 8 20 -17 21 -27 1 -27 1 9 17 27 13 39 25 44 47 4 16 10 36 15 45
9 16 110 277 114 295 1 6 6 21 12 35 6 14 58 153 117 310 59 157 111 294 116
305 5 11 41 108 80 215 39 107 76 204 81 215 29 63 118 319 113 326 -3 5 -14
9 -24 9 -10 0 -56 9 -102 20 -46 10 -94 21 -108 24 -14 2 -47 10 -75 16 -70
16 -70 16 -168 36 -48 9 -86 18 -85 20 4 4 104 14 193 20 44 2 107 7 140 9 33
3 107 7 165 11 58 4 112 8 120 10 8 1 18 3 23 3 4 1 7 9 7 19 0 10 3 22 7 26
4 3 8 14 9 23 2 10 7 26 13 38 17 32 53 128 57 151 3 18 -10 24 -131 59 -74
21 -132 41 -130 45 4 7 17 10 95 24 14 3 61 12 105 21 44 9 88 19 99 21 20 4
46 23 44 32 -1 4 1 14 5 22 3 8 54 143 112 300 59 157 125 332 147 390 21 58
53 141 70 185 16 44 41 109 55 145 14 35 26 69 28 75 1 5 8 24 14 40 7 17 25
64 41 105 40 109 101 273 107 290 4 8 7 17 8 20 1 3 7 18 13 33 7 16 12 31 12
34 0 3 6 19 14 36 8 18 21 51 30 75 15 39 15 42 -2 43 -9 1 -28 2 -42 4 -14 1
-79 5 -145 10 -66 4 -140 8 -165 10 -103 7 -228 16 -275 20 -27 2 -97 6 -155
10 -58 3 -132 8 -165 11 -33 2 -96 6 -140 9 -44 2 -107 7 -140 10 -57 4 -198
13 -315 20 -59 3 -207 14 -280 20 -25 2 -98 7 -162 11 -65 3 -118 11 -118 16
0 5 5 6 10 3 10 -6 119 -8 1340 -21 349 -3 669 -7 710 -8 41 -1 81 0 88 2 7 3
-36 22 -96 42 -61 21 -119 43 -129 49 -16 9 -14 11 12 11 17 1 39 3 50 5 11 2
40 7 65 10 49 6 114 15 144 21 11 2 23 7 26 11 4 5 40 96 79 203 40 107 76
204 81 215 18 38 60 158 58 161 -2 1 -43 23 -92 48 -49 25 -82 48 -75 50 20 6
127 20 186 24 24 2 48 32 58 73 7 27 3 29 -105 54 -8 2 -40 11 -70 19 -30 8
-140 37 -244 65 -103 27 -190 51 -191 53 -2 2 148 3 332 3 210 0 340 4 348 10
12 9 70 159 70 179 0 10 -8 12 -100 21 -57 7 -74 9 -155 19 -35 5 -59 8 -175
22 -33 3 -68 8 -79 10 -10 2 -44 6 -75 9 -31 4 -67 8 -81 10 -14 2 -47 6 -75
10 -27 3 -63 7 -80 10 -16 2 -52 6 -80 10 -27 3 -83 11 -124 16 -41 6 -97 13
-125 15 -28 2 -60 5 -71 8 -11 2 -48 7 -82 11 -35 4 -63 10 -63 14 0 3 324 5
719 4 674 -2 719 -2 726 15 4 9 47 125 96 257 50 132 94 249 99 260 22 51 60
154 60 164 0 5 -21 13 -47 17 -27 5 -50 9 -53 9 -13 3 -88 16 -115 20 -16 3
-64 11 -105 19 -41 8 -91 17 -110 20 -19 3 -45 8 -56 10 -12 2 -37 7 -55 10
-189 31 -238 45 -168 47 19 0 41 2 49 3 8 2 49 6 90 10 41 3 86 8 100 10 14 3
54 8 90 11 36 4 76 8 90 10 14 1 54 6 90 9 36 4 76 9 90 11 14 2 57 7 95 11
39 4 73 8 78 10 4 1 13 2 21 3 8 0 17 13 22 29 9 33 9 33 19 57 18 45 47 121
50 130 1 6 6 21 12 35 6 14 56 149 112 300 57 151 109 289 116 305 37 83 41
79 -102 113 -70 16 -154 36 -186 43 -31 7 -55 14 -53 16 2 2 28 6 57 9 30 3
65 7 79 10 14 2 45 7 70 9 59 6 120 14 156 21 16 4 38 7 48 8 14 1 24 15 35
48 9 26 19 50 24 54 4 4 7 15 7 24 0 9 6 30 14 46 14 28 285 748 290 769 1 6
10 28 20 49 9 22 15 45 13 51 -3 5 -38 16 -78 24 -41 7 -83 15 -94 17 -114 24
-239 50 -280 58 -11 3 -65 14 -121 25 -55 12 -111 23 -125 26 -13 3 -35 7 -49
10 -14 3 -34 7 -45 9 -17 3 -205 43 -295 62 -14 2 -51 10 -83 16 -32 5 -56 12
-54 14 2 2 73 6 158 9 349 12 401 14 549 20 85 3 214 8 285 11 72 2 173 6 225
8 52 2 105 4 118 5 12 0 22 7 22 14 0 7 12 42 26 78 14 35 27 69 28 74 2 6 8
24 15 40 6 17 23 62 38 100 14 39 41 111 60 160 20 50 36 95 37 100 2 6 8 21
14 35 28 65 95 251 90 255 -4 4 -53 10 -158 20 -73 6 -213 17 -242 19 -14 0
-30 5 -35 9 -4 5 -3 7 2 6 8 -3 86 8 120 17 10 2 50 10 115 21 43 7 54 9 161
29 l86 16 93 236 c51 130 98 251 105 267 6 17 17 44 23 60 6 17 22 61 37 98
14 38 25 71 23 73 -5 4 -62 11 -168 19 -41 4 -100 8 -130 11 -30 2 -82 6 -115
8 -33 2 -80 7 -105 10 -25 3 -76 8 -115 10 -65 4 -159 13 -245 21 -19 2 -54 4
-77 4 -77 2 -45 17 70 35 63 9 125 18 138 21 13 2 56 8 94 14 39 6 81 13 94
16 13 2 49 7 80 11 31 3 59 8 63 10 3 2 28 7 55 9 26 3 59 8 73 10 24 4 52 9
115 19 100 15 122 19 139 22 10 2 44 6 75 10 31 3 59 9 62 12 6 7 103 256 248
642 45 118 86 223 91 232 6 10 10 23 10 29 0 6 6 25 14 42 17 39 115 292 126
327 5 14 38 102 75 195 37 94 68 175 69 180 2 6 8 21 13 35 6 14 58 151 116
305 58 154 119 316 136 359 17 44 29 81 28 83 -2 1 -20 5 -41 9 -21 3 -48 8
-60 10 -11 2 -41 7 -66 10 -25 3 -56 7 -70 10 -14 3 -54 9 -90 15 -87 13 -120
18 -150 24 -14 3 -43 7 -65 10 -22 2 -50 6 -62 9 -11 2 -43 8 -70 12 -26 3
-57 8 -68 10 -11 3 -49 9 -85 14 -155 24 -170 29 -70 24 90 -5 131 -8 280 -20
85 -6 153 -11 270 -19 52 -3 111 -8 130 -10 19 -2 85 -7 145 -10 l111 -7 26
75 c17 47 22 74 15 74 -7 0 -41 4 -77 8 -81 9 -98 11 -185 20 -38 4 -77 9 -86
10 -9 2 -68 9 -132 16 -64 7 -117 15 -117 18 0 3 89 7 198 9 108 1 253 4 321
5 l123 2 34 85 c19 47 35 87 35 90 3 14 359 960 375 997 8 17 14 37 14 45 0 8
3 18 7 22 7 6 142 359 139 363 0 0 -44 4 -96 7 -258 16 -336 21 -365 26 -8 1
101 34 185 55 8 2 76 21 150 41 74 20 148 39 165 43 28 6 33 17 99 189 38 100
66 185 63 188 -3 3 -41 8 -84 10 -43 3 -105 6 -138 8 -33 2 -80 5 -105 6 l-45
2 35 9 c19 4 49 10 65 13 17 3 39 7 50 10 11 2 61 12 110 21 50 9 97 18 105
20 8 2 23 4 33 4 18 1 60 78 51 93 -3 4 -2 8 3 8 4 0 14 19 21 43 8 23 32 88
54 145 33 86 38 107 30 131 -9 26 -7 32 19 57 16 15 29 31 29 35 0 4 -16 13
-35 19 -52 17 -48 25 28 45 4 2 16 3 27 4 11 0 19 4 18 9 -1 4 4 20 10 35 7
16 12 32 12 36 0 4 7 22 16 40 10 20 14 45 10 70 -4 32 -1 43 23 67 31 33 75
129 68 149 -3 7 -27 15 -54 19 -26 4 -55 9 -63 11 -28 6 -183 36 -209 40 -14
2 -56 11 -92 19 -36 8 -81 17 -100 20 -122 23 -172 34 -159 36 22 3 499 16
680 19 l65 1 17 43 c97 248 97 250 103 389 5 125 7 134 35 177 16 25 28 46 27
47 -2 2 -114 13 -139 14 -10 0 -18 4 -18 8 0 4 40 7 90 7 l89 -2 65 102 c36
56 79 139 96 186 18 46 36 93 40 104 5 11 31 79 58 152 l49 132 -56 8 -56 7
61 9 62 8 32 87 c18 48 45 120 61 161 16 40 29 78 29 83 0 5 9 30 21 55 11 25
19 46 17 48 -2 2 -39 -39 -83 -92z m-590 -1053 c3 -6 -1 -7 -9 -4 -18 7 -21
14 -7 14 6 0 13 -4 16 -10z m-4140 -6560 c3 -5 1 -10 -4 -10 -6 0 -11 5 -11
10 0 6 2 10 4 10 3 0 8 -4 11 -10z m42 -6 c-3 -3 -12 -4 -19 -1 -8 3 -5 6 6 6
11 1 17 -2 13 -5z m-1722 -5653 c-9 -8 -36 -10 -30 -2 2 4 11 8 20 8 8 0 13
-3 10 -6z"/>
</g>
</svg>
